#N canvas 222 102 847 603 10;
#X obj 107 124 hsl 100 30 0 255 0 0 \$0-p1 nil empty -2 -8 0 10 -262144
-1 -1 1500 1;
#X obj 220 124 hsl 100 30 0 255 0 0 \$0-p2 \$0-l2p1 empty -2 -8 0 10
-262144 -1 -1 1500 1;
#X obj 329 124 nbx 3 30 0 7 0 0 \$0-c nil empty 0 -8 0 16 -262144 -1
-1 0 256;
#X obj 396 124 tgl 30 0 \$0-e nil empty 17 7 0 10 -262144 -1 -1 0 1
;
#X obj 434 124 tgl 30 0 \$0-s nil empty 17 7 0 10 -262144 -1 -1 0 1
;
#X obj 473 124 nbx 3 30 0 3 0 0 \$0-l nil empty 0 -8 0 16 -262144 -1
-1 0 256;
#X obj 558 124 bng 30 250 50 0 \$0-up nil update -4 -10 0 10 -262144
-1 -1;
#N canvas 392 282 754 397 gutsy 0;
#X obj 476 -22 r \$0-s;
#X obj 259 34 << 8;
#X obj 238 84 i;
#X obj 350 89 i;
#X obj 415 87 i;
#X obj 453 86 i;
#X obj 494 85 i;
#X obj 125 86 i;
#X obj 125 142 +;
#X obj 226 210 +;
#X obj 453 125 +;
#X obj 432 181 +;
#X obj 324 280 +;
#X obj 365 36 << 16;
#X obj 430 6 << 19;
#X obj 468 6 << 20;
#X obj 509 6 << 21;
#X obj 97 58 r \$0-up;
#X obj 205 57 r \$0-up;
#X obj 313 65 r \$0-up;
#X obj 381 61 r \$0-up;
#X obj 443 62 r \$0-up;
#X obj 500 61 r \$0-up;
#X obj 148 58 r \$0-p1;
#X obj 259 10 r \$0-p2;
#X obj 364 15 r \$0-c;
#X obj 429 -21 r \$0-e;
#X obj 526 -20 r \$0-l;
#X obj 320 311 outlet;
#X connect 0 0 15 0;
#X connect 1 0 2 1;
#X connect 2 0 8 1;
#X connect 3 0 9 1;
#X connect 4 0 11 0;
#X connect 5 0 10 0;
#X connect 6 0 10 1;
#X connect 7 0 8 0;
#X connect 8 0 9 0;
#X connect 9 0 12 0;
#X connect 10 0 11 1;
#X connect 11 0 12 1;
#X connect 12 0 28 0;
#X connect 13 0 3 1;
#X connect 14 0 4 1;
#X connect 15 0 5 1;
#X connect 16 0 6 1;
#X connect 17 0 7 0;
#X connect 18 0 2 0;
#X connect 19 0 3 0;
#X connect 20 0 4 0;
#X connect 21 0 5 0;
#X connect 22 0 6 0;
#X connect 23 0 7 1;
#X connect 24 0 1 0;
#X connect 25 0 13 0;
#X connect 26 0 14 0;
#X connect 27 0 16 0;
#X restore 73 250 pd gutsy;
#X obj 100 37 inlet;
#X obj 73 273 outlet;
#X obj 215 426 cnv 15 500 80 empty empty empty 20 12 0 14 -228856 -66577
0;
#X obj 215 232 r \$0-p1;
#X obj 215 268 spigot;
#X obj 282 239 r \$0-link;
#X obj 208 157 tgl 10 0 \$0-link nil linked 0 17 0 10 -262144 -1 -1
1 1;
#X obj 216 300 s \$0-l2p1;
#X floatatom 154 299 5 0 0 0 - - -;
#X connect 7 0 9 0;
#X connect 11 0 12 0;
#X connect 11 0 16 0;
#X connect 12 0 15 0;
#X connect 13 0 12 1;
#X coords 0 -1 1 1 500 80 2 100 100;
